<svg version="1.1" id="Layer_1" xmlns="http://www.w3.org/2000/svg" x="0" y="0" viewBox="0 0 80 80" xml:space="preserve" fill="#ffffff">
  <path class="st0" d="M40 0C17.91 0 0 17.91 0 40s17.91 40 40 40 40-17.91 40-40S62.09 0 40 0zm27.64 67.64H12.36V12.36h55.29v55.28z"/>
  <path class="st0" d="M39.93 24.75c-8.38 0-15.18 6.79-15.18 15.18S31.54 55.1 39.93 55.1 55.1 48.31 55.1 39.93s-6.79-15.18-15.17-15.18zM40 45.9c-3.26 0-5.9-2.64-5.9-5.9 0-3.26 2.64-5.9 5.9-5.9s5.9 2.64 5.9 5.9c0 3.26-2.64 5.9-5.9 5.9z"/>
  <path class="st0" d="M45.9 40c0 .18-.01.37-.03.55l24.98-24.98-6.42-6.42-24.98 24.98c.18-.02.36-.03.55-.03 3.26 0 5.9 2.64 5.9 5.9zM34.1 40c0-.18.01-.37.03-.55L9.15 64.43l6.42 6.42 24.98-24.98c-.18.02-.36.03-.55.03-3.26 0-5.9-2.64-5.9-5.9z"/>
  <path class="st0" d="M70.85 64.43L45.87 39.45c.02.18.03.36.03.55 0 3.26-2.64 5.9-5.9 5.9-.18 0-.37-.01-.55-.03l24.98 24.98 6.42-6.42zM40 34.1c.18 0 .37.01.55.03L15.57 9.15l-6.42 6.42 24.98 24.98c-.02-.18-.03-.36-.03-.55 0-3.26 2.64-5.9 5.9-5.9z"/>
</svg>
